<svg width="38" height="38" viewBox="0 0 38 38" fill="none" xmlns="http://www.w3.org/2000/svg">
<path d="M18.75 9.375V6.25M18.75 9.375C17.9212 9.375 17.1263 9.70424 16.5403 10.2903C15.9542 10.8763 15.625 11.6712 15.625 12.5C15.625 13.3288 15.9542 14.1237 16.5403 14.7097C17.1263 15.2958 17.9212 15.625 18.75 15.625M18.75 9.375C19.5788 9.375 20.3737 9.70424 20.9597 10.2903C21.5458 10.8763 21.875 11.6712 21.875 12.5C21.875 13.3288 21.5458 14.1237 20.9597 14.7097C20.3737 15.2958 19.5788 15.625 18.75 15.625M18.75 15.625V31.25M9.375 28.125C10.2038 28.125 10.9987 27.7958 11.5847 27.2097C12.1708 26.6237 12.5 25.8288 12.5 25C12.5 24.1712 12.1708 23.3763 11.5847 22.7903C10.9987 22.2042 10.2038 21.875 9.375 21.875M9.375 28.125C8.5462 28.125 7.75134 27.7958 7.16529 27.2097C6.57924 26.6237 6.25 25.8288 6.25 25C6.25 24.1712 6.57924 23.3763 7.16529 22.7903C7.75134 22.2042 8.5462 21.875 9.375 21.875M9.375 28.125V31.25M9.375 21.875V6.25M28.125 28.125C28.9538 28.125 29.7487 27.7958 30.3347 27.2097C30.9208 26.6237 31.25 25.8288 31.25 25C31.25 24.1712 30.9208 23.3763 30.3347 22.7903C29.7487 22.2042 28.9538 21.875 28.125 21.875M28.125 28.125C27.2962 28.125 26.5013 27.7958 25.9153 27.2097C25.3292 26.6237 25 25.8288 25 25C25 24.1712 25.3292 23.3763 25.9153 22.7903C26.5013 22.2042 27.2962 21.875 28.125 21.875M28.125 28.125V31.25M28.125 21.875V6.25" stroke="#006EFC" stroke-width="2" stroke-linecap="round" stroke-linejoin="round"/>
</svg>
