<svg width="38" height="38" viewBox="0 0 38 38" fill="none" xmlns="http://www.w3.org/2000/svg">
<path d="M12.5 25H9.375C8.5462 25 7.75134 24.6708 7.16529 24.0847C6.57924 23.4987 6.25 22.7038 6.25 21.875V9.375C6.25 8.5462 6.57924 7.75134 7.16529 7.16529C7.75134 6.57924 8.5462 6.25 9.375 6.25H21.875C22.7038 6.25 23.4987 6.57924 24.0847 7.16529C24.6708 7.75134 25 8.5462 25 9.375V12.5M15.625 31.25H28.125C28.9538 31.25 29.7487 30.9208 30.3347 30.3347C30.9208 29.7487 31.25 28.9538 31.25 28.125V15.625C31.25 14.7962 30.9208 14.0013 30.3347 13.4153C29.7487 12.8292 28.9538 12.5 28.125 12.5H15.625C14.7962 12.5 14.0013 12.8292 13.4153 13.4153C12.8292 14.0013 12.5 14.7962 12.5 15.625V28.125C12.5 28.9538 12.8292 29.7487 13.4153 30.3347C14.0013 30.9208 14.7962 31.25 15.625 31.25Z" stroke="#006EFC" stroke-width="2" stroke-linecap="round" stroke-linejoin="round"/>
</svg>
