<svg width="38" height="38" viewBox="0 0 38 38" fill="none" xmlns="http://www.w3.org/2000/svg">
<g id="Cash2go Landing page 1" clip-path="url(#clip0_131_8000)">
<rect width="1440" height="3500" transform="translate(-1001 -1121)" fill="white"/>
<g id="Option 1">
<rect width="1440" height="480" transform="translate(-1001 -121)" fill="white"/>
<g id="Investment rect. 5">
<rect x="-351" y="-31" width="740" height="300" rx="9" fill="#ABD1FA" fill-opacity="0.5"/>
<g id="Invest/yield icon">
<circle id="Ellipse 6" cx="19" cy="19" r="25" fill="#F2F2F2"/>
<g id="ViewGrid">
<path id="Vector" d="M10 6.25C9.00544 6.25 8.05161 6.64509 7.34835 7.34835C6.64509 8.05161 6.25 9.00544 6.25 10V13.75C6.25 14.7446 6.64509 15.6984 7.34835 16.4016C8.05161 17.1049 9.00544 17.5 10 17.5H13.75C14.7446 17.5 15.6984 17.1049 16.4016 16.4016C17.1049 15.6984 17.5 14.7446 17.5 13.75V10C17.5 9.00544 17.1049 8.05161 16.4016 7.34835C15.6984 6.64509 14.7446 6.25 13.75 6.25H10ZM10 21.25C9.00544 21.25 8.05161 21.6451 7.34835 22.3483C6.64509 23.0516 6.25 24.0054 6.25 25V28.75C6.25 29.7446 6.64509 30.6984 7.34835 31.4016C8.05161 32.1049 9.00544 32.5 10 32.5H13.75C14.7446 32.5 15.6984 32.1049 16.4016 31.4016C17.1049 30.6984 17.5 29.7446 17.5 28.75V25C17.5 24.0054 17.1049 23.0516 16.4016 22.3483C15.6984 21.6451 14.7446 21.25 13.75 21.25H10ZM21.25 10C21.25 9.00544 21.6451 8.05161 22.3483 7.34835C23.0516 6.64509 24.0054 6.25 25 6.25H28.75C29.7446 6.25 30.6984 6.64509 31.4016 7.34835C32.1049 8.05161 32.5 9.00544 32.5 10V13.75C32.5 14.7446 32.1049 15.6984 31.4016 16.4016C30.6984 17.1049 29.7446 17.5 28.75 17.5H25C24.0054 17.5 23.0516 17.1049 22.3483 16.4016C21.6451 15.6984 21.25 14.7446 21.25 13.75V10ZM21.25 25C21.25 24.0054 21.6451 23.0516 22.3483 22.3483C23.0516 21.6451 24.0054 21.25 25 21.25H28.75C29.7446 21.25 30.6984 21.6451 31.4016 22.3483C32.1049 23.0516 32.5 24.0054 32.5 25V28.75C32.5 29.7446 32.1049 30.6984 31.4016 31.4016C30.6984 32.1049 29.7446 32.5 28.75 32.5H25C24.0054 32.5 23.0516 32.1049 22.3483 31.4016C21.6451 30.6984 21.25 29.7446 21.25 28.75V25Z" fill="#006EFC"/>
</g>
</g>
</g>
</g>
</g>
<defs>
<clipPath id="clip0_131_8000">
<rect width="1440" height="3500" fill="white" transform="translate(-1001 -1121)"/>
</clipPath>
</defs>
</svg>
